<svg xmlns="http://www.w3.org/2000/svg" xmlns:xlink="http://www.w3.org/1999/xlink" preserveAspectRatio="xMidYMid" width="500" height="500" viewBox="0 0 500 500">
  <defs>
    <style>
      .cls-1 {
        fill: #000;
        fill-rule: evenodd;
      }
    </style>
  </defs>
  <path d="M478.591,136.223 L405.021,209.956 C403.203,211.779 402.659,214.151 402.518,215.815 C401.540,227.578 396.419,238.652 388.093,246.999 L321.033,314.225 C308.545,326.732 271.087,350.710 243.082,358.349 C242.891,358.402 242.613,358.535 242.427,359.022 C239.871,365.829 235.674,370.033 229.955,371.511 C218.670,374.449 210.551,370.493 206.725,367.882 C206.274,367.564 205.704,367.608 205.319,367.988 L164.736,408.660 C162.255,411.148 158.230,411.121 155.758,408.669 L139.476,392.330 C139.122,391.975 138.543,391.967 138.180,392.339 L55.567,475.152 C54.329,476.391 52.701,477.011 51.075,477.011 C49.452,477.011 47.824,476.391 46.590,475.152 L21.803,450.288 C19.336,447.819 19.336,443.791 21.808,441.322 L104.434,358.500 C104.787,358.145 104.787,357.570 104.438,357.216 L87.474,340.204 C85.011,337.735 85.006,333.716 87.470,331.229 L128.827,289.777 C129.198,289.405 129.115,288.812 128.911,288.379 C124.864,279.608 126.722,269.145 133.532,262.338 C135.412,260.435 137.627,258.886 140.112,257.736 C148.958,229.792 175.442,191.544 187.033,179.923 L254.098,112.706 C264.149,102.624 278.017,97.428 292.376,98.189 C294.123,98.339 295.720,97.765 296.803,96.658 L367.967,25.342 C367.967,25.342 367.967,25.342 367.971,25.342 C369.810,23.484 372.818,23.492 374.667,25.334 L478.599,129.514 C479.492,130.400 479.988,131.595 479.988,132.860 C479.988,134.135 479.492,135.330 478.591,136.223 ZM371.319,29.679 L300.655,100.499 C298.448,102.721 295.432,103.775 292.045,103.624 C291.152,103.571 290.262,103.544 289.374,103.544 C277.602,103.544 266.272,108.200 257.945,116.546 L190.881,183.764 C179.918,194.758 153.778,232.615 145.667,259.001 C145.171,260.620 144.009,261.931 142.395,262.674 C140.502,263.551 138.813,264.728 137.380,266.170 C132.166,271.384 130.750,279.386 133.846,286.095 C135.067,288.742 134.602,291.699 132.670,293.627 L91.322,335.070 C90.968,335.424 90.964,336.008 91.317,336.362 L108.282,353.374 C110.749,355.844 110.749,359.871 108.277,362.341 L25.650,445.163 C25.297,445.518 25.297,446.092 25.646,446.447 L50.434,471.311 C50.796,471.673 51.371,471.664 51.724,471.311 L134.337,388.488 C136.827,386.009 140.847,386.018 143.319,388.479 L159.602,404.819 C159.964,405.182 160.540,405.173 160.893,404.819 L201.477,364.146 C203.692,361.934 207.186,361.606 209.786,363.385 C212.855,365.493 219.383,368.617 228.593,366.253 C232.552,365.218 235.418,362.235 237.341,357.110 C238.093,355.109 239.658,353.658 241.640,353.108 C268.818,345.692 305.108,322.483 317.186,310.384 L384.245,243.157 C391.665,235.722 396.234,225.853 397.105,215.373 C397.410,211.681 398.817,208.478 401.174,206.114 L474.260,132.869 L371.319,29.679 ZM400.709,199.617 C400.037,200.290 399.082,200.555 398.171,200.387 C397.246,200.201 396.482,199.555 396.119,198.679 C388.893,181.047 372.446,166.938 372.283,166.797 L309.252,229.632 C308.571,230.305 307.368,230.305 306.687,229.632 L300.876,223.808 L280.879,243.865 C280.180,244.565 279.246,244.954 278.255,244.954 C277.265,244.954 276.332,244.565 275.629,243.856 L261.367,229.588 C259.930,228.137 259.930,225.791 261.367,224.348 L281.383,204.273 L276.951,199.839 C276.244,199.131 276.244,197.980 276.951,197.272 L339.753,134.321 C337.815,131.806 321.586,111.864 308.479,106.810 C307.342,106.368 306.515,105.394 306.267,104.199 C306.010,102.969 306.386,101.712 307.275,100.827 L370.036,37.912 C370.717,37.247 371.920,37.238 372.601,37.912 L378.982,44.294 C379.690,45.001 379.690,46.152 378.982,46.860 L345.165,80.743 L350.286,85.885 L384.090,52.002 C384.431,51.666 384.891,51.471 385.373,51.471 C385.855,51.471 386.315,51.666 386.655,52.002 L394.554,59.925 C395.261,60.633 395.256,61.783 394.554,62.492 L360.741,96.366 L364.853,100.490 L398.657,66.599 C399.338,65.926 400.541,65.926 401.222,66.599 L409.129,74.520 C409.833,75.229 409.837,76.380 409.129,77.087 L375.316,110.980 L379.429,115.113 L413.241,81.203 C413.923,80.531 415.126,80.531 415.807,81.203 L423.475,88.886 C424.182,89.595 424.182,90.746 423.475,91.454 L389.662,125.337 L394.478,130.170 L428.287,96.304 C428.994,95.596 430.148,95.596 430.847,96.304 L439.037,104.492 C439.744,105.200 439.749,106.350 439.042,107.059 L405.233,140.959 L409.337,145.084 L443.150,111.183 C443.831,110.510 445.034,110.510 445.715,111.183 L453.622,119.105 C454.325,119.813 454.329,120.963 453.622,121.672 L419.800,155.573 L423.917,159.680 L457.726,125.796 C458.407,125.124 459.610,125.124 460.291,125.796 L466.040,131.550 C466.743,132.258 466.747,133.409 466.040,134.117 L400.718,199.617 C400.718,199.617 400.713,199.617 400.709,199.617 ZM459.008,129.647 L425.204,163.530 C424.496,164.239 423.351,164.239 422.644,163.530 L415.961,156.856 C415.621,156.520 415.430,156.059 415.426,155.573 C415.426,155.095 415.616,154.634 415.957,154.289 L449.778,120.389 L444.433,115.033 L410.619,148.934 C410.279,149.271 409.819,149.465 409.337,149.465 C408.855,149.465 408.396,149.271 408.055,148.934 L401.390,142.243 C400.687,141.535 400.687,140.384 401.390,139.676 L435.199,105.775 L429.569,100.154 L395.761,134.020 C395.420,134.356 394.960,134.551 394.478,134.551 C393.996,134.551 393.537,134.356 393.196,134.020 L385.819,126.620 C385.112,125.911 385.116,124.761 385.819,124.053 L419.632,90.170 L414.524,85.053 L380.711,118.963 C380.371,119.299 379.911,119.494 379.429,119.494 C378.947,119.494 378.487,119.299 378.146,118.963 L371.478,112.263 C370.771,111.555 370.775,110.404 371.478,109.696 L405.286,75.804 L399.940,70.449 L366.136,104.341 C365.455,105.014 364.252,105.014 363.571,104.341 L356.897,97.650 C356.190,96.941 356.194,95.790 356.897,95.083 L390.710,61.208 L385.373,55.853 L351.569,89.736 C351.228,90.072 350.768,90.267 350.286,90.267 C349.804,90.267 349.345,90.072 349.004,89.736 L341.322,82.026 C340.615,81.318 340.619,80.168 341.322,79.459 L375.139,45.577 L371.319,41.762 L309.836,103.394 C323.775,108.829 340.579,129.461 342.450,131.798 C343.011,132.347 343.401,133.276 343.401,134.267 C343.401,135.259 343.011,136.188 342.313,136.888 L280.794,198.555 L285.226,202.989 C285.928,203.698 285.933,204.848 285.226,205.556 L263.932,226.906 L278.198,241.298 L299.594,219.958 C300.275,219.285 301.477,219.285 302.158,219.958 L307.969,225.782 L369.493,164.132 C370.890,162.733 373.340,162.725 374.737,164.141 C375.316,164.618 391.254,178.294 399.007,196.201 L462.196,132.834 L459.008,129.647 Z" class="cls-1"/>
</svg>
