<svg xmlns="http://www.w3.org/2000/svg" xmlns:xlink="http://www.w3.org/1999/xlink" preserveAspectRatio="xMidYMid" width="500" height="500" viewBox="0 0 500 500">
  <defs>
    <style>
      .cls-1 {
        fill: #000;
        fill-rule: evenodd;
      }
    </style>
  </defs>
  <path d="M401.942,257.861 L360.489,257.861 C357.644,264.439 351.091,269.055 343.473,269.055 C335.854,269.055 329.301,264.439 326.457,257.861 L268.783,257.861 C266.904,262.206 263.408,265.693 259.054,267.560 L259.054,297.071 L292.774,297.071 C298.138,297.071 302.503,301.427 302.503,306.789 L302.503,470.307 C302.503,475.669 298.138,480.025 292.774,480.025 L209.193,480.025 C203.825,480.025 199.461,475.669 199.461,470.307 L199.461,306.789 C199.461,301.427 203.825,297.071 209.193,297.071 L245.265,297.071 L245.265,267.857 C240.551,266.085 236.741,262.461 234.751,257.861 L180.808,257.861 C177.964,264.439 171.411,269.055 163.792,269.055 C156.172,269.055 149.617,264.436 146.774,257.855 L100.021,257.861 C99.481,257.861 98.964,257.649 98.583,257.265 C98.199,256.888 97.986,256.365 97.986,255.828 L97.986,245.263 C97.986,244.138 98.898,243.231 100.021,243.231 L146.777,243.231 C148.794,238.567 152.682,234.908 157.487,233.164 L157.487,203.968 L124.360,203.968 C118.996,203.968 114.631,199.613 114.631,194.250 L114.631,30.732 C114.631,25.370 118.996,21.014 124.360,21.014 L207.940,21.014 C213.305,21.014 217.670,25.370 217.670,30.732 L217.670,194.250 C217.670,199.613 213.305,203.968 207.940,203.968 L171.278,203.968 L171.278,233.628 C175.538,235.516 178.959,238.954 180.808,243.231 L234.751,243.231 C237.596,236.653 244.148,232.037 251.767,232.037 C259.385,232.037 265.938,236.653 268.783,243.231 L326.457,243.231 C328.329,238.903 331.805,235.429 336.136,233.556 L336.136,203.968 L303.450,203.968 C298.086,203.968 293.721,199.613 293.721,194.250 L293.721,30.732 C293.721,25.370 298.086,21.014 303.450,21.014 L387.030,21.014 C392.396,21.014 396.760,25.370 396.760,30.732 L396.760,194.250 C396.760,199.613 392.396,203.968 387.030,203.968 L349.925,203.968 L349.925,233.217 C354.662,234.983 358.492,238.615 360.488,243.231 L401.942,243.231 C403.065,243.231 403.977,244.138 403.977,245.263 L403.977,255.828 C403.977,256.954 403.065,257.861 401.942,257.861 ZM102.056,247.295 L102.056,253.796 L145.566,253.790 C145.378,252.734 145.263,251.654 145.263,250.546 C145.263,249.435 145.378,248.353 145.567,247.295 L102.056,247.295 ZM207.940,199.903 C211.062,199.903 213.600,197.368 213.600,194.250 L213.600,30.732 C213.600,27.614 211.062,25.079 207.940,25.079 L124.360,25.079 C121.238,25.079 118.700,27.614 118.700,30.732 L118.700,194.250 C118.700,197.368 121.238,199.903 124.360,199.903 L207.940,199.903 ZM161.556,203.968 L161.556,232.185 C162.290,232.096 163.034,232.037 163.792,232.037 C164.961,232.037 166.100,232.158 167.209,232.366 L167.209,203.968 L161.556,203.968 ZM168.913,237.055 C168.657,237.013 168.420,236.923 168.206,236.796 C166.813,236.348 165.332,236.102 163.792,236.102 C155.820,236.102 149.332,242.582 149.332,250.546 C149.332,258.510 155.820,264.991 163.792,264.991 C171.765,264.991 178.254,258.510 178.254,250.546 C178.254,244.385 174.363,239.126 168.913,237.055 ZM182.018,247.295 C182.207,248.353 182.323,249.435 182.323,250.546 C182.323,251.656 182.207,252.739 182.019,253.796 L233.541,253.796 C233.353,252.739 233.237,251.656 233.237,250.546 C233.237,249.435 233.353,248.353 233.541,247.295 L182.018,247.295 ZM203.530,306.789 L203.530,470.307 C203.530,473.425 206.072,475.961 209.193,475.961 L292.774,475.961 C295.895,475.961 298.434,473.425 298.434,470.307 L298.434,306.789 C298.434,303.671 295.895,301.135 292.774,301.135 L209.193,301.135 C206.072,301.135 203.530,303.671 203.530,306.789 ZM254.985,297.071 L254.985,268.757 C253.937,268.941 252.866,269.055 251.767,269.055 C250.941,269.055 250.133,268.982 249.335,268.877 L249.335,297.071 L254.985,297.071 ZM251.767,236.102 C243.794,236.102 237.306,242.582 237.306,250.546 C237.306,258.510 243.794,264.991 251.767,264.991 C259.739,264.991 266.228,258.510 266.228,250.546 C266.228,242.582 259.739,236.102 251.767,236.102 ZM269.993,247.295 C270.182,248.353 270.297,249.435 270.297,250.546 C270.297,251.656 270.182,252.739 269.993,253.796 L325.247,253.796 C325.058,252.739 324.943,251.656 324.943,250.546 C324.943,249.435 325.058,248.353 325.247,247.295 L269.993,247.295 ZM387.030,199.903 C390.152,199.903 392.690,197.368 392.690,194.250 L392.690,30.732 C392.690,27.614 390.152,25.079 387.030,25.079 L303.450,25.079 C300.329,25.079 297.790,27.614 297.790,30.732 L297.790,194.250 C297.790,197.368 300.329,199.903 303.450,199.903 L387.030,199.903 ZM340.205,203.968 L340.205,232.343 C341.268,232.153 342.356,232.037 343.473,232.037 C344.282,232.037 345.073,232.107 345.855,232.208 L345.855,203.968 L340.205,203.968 ZM343.473,236.102 C335.500,236.102 329.012,242.582 329.012,250.546 C329.012,258.510 335.500,264.991 343.473,264.991 C351.445,264.991 357.933,258.510 357.933,250.546 C357.933,242.582 351.445,236.102 343.473,236.102 ZM399.908,247.295 L361.699,247.295 C361.887,248.353 362.003,249.435 362.003,250.546 C362.003,251.656 361.887,252.739 361.699,253.796 L399.908,253.796 L399.908,247.295 ZM308.716,36.988 L384.121,36.988 C384.870,36.988 385.480,37.597 385.480,38.345 L385.480,60.707 C385.480,61.455 384.870,62.064 384.121,62.064 L308.716,62.064 C307.967,62.064 307.357,61.455 307.357,60.707 L307.357,38.345 C307.357,37.597 307.967,36.988 308.716,36.988 ZM310.074,59.350 L382.762,59.350 L382.762,39.702 L310.074,39.702 L310.074,59.350 ZM308.716,74.649 L384.121,74.649 C384.870,74.649 385.480,75.257 385.480,76.006 L385.480,98.368 C385.480,99.116 384.870,99.725 384.121,99.725 L308.716,99.725 C307.967,99.725 307.357,99.116 307.357,98.368 L307.357,76.006 C307.357,75.257 307.967,74.649 308.716,74.649 ZM310.074,97.010 L382.762,97.010 L382.762,77.363 L310.074,77.363 L310.074,97.010 ZM344.358,138.200 C351.926,138.200 358.086,144.356 358.086,151.916 C358.086,159.476 351.926,165.633 344.358,165.633 C336.785,165.633 330.625,159.476 330.625,151.916 C330.625,144.356 336.785,138.200 344.358,138.200 ZM344.358,162.918 C350.432,162.918 355.369,157.986 355.369,151.916 C355.369,145.845 350.432,140.914 344.358,140.914 C338.283,140.914 333.343,145.845 333.343,151.916 C333.343,157.986 338.283,162.918 344.358,162.918 ZM344.358,169.975 C349.003,169.975 352.784,173.755 352.784,178.396 C352.784,183.036 349.003,186.816 344.358,186.816 C339.708,186.816 335.928,183.036 335.928,178.396 C335.928,173.755 339.708,169.975 344.358,169.975 ZM344.358,184.102 C347.505,184.102 350.067,181.540 350.067,178.396 C350.067,175.251 347.505,172.689 344.358,172.689 C341.206,172.689 338.645,175.251 338.645,178.396 C338.645,181.540 341.206,184.102 344.358,184.102 ZM291.223,314.402 L291.223,336.764 C291.223,337.512 290.613,338.121 289.865,338.121 L214.458,338.121 C213.710,338.121 213.100,337.512 213.100,336.764 L213.100,314.402 C213.100,313.654 213.710,313.045 214.458,313.045 L289.865,313.045 C290.613,313.045 291.223,313.654 291.223,314.402 ZM288.506,315.758 L215.817,315.758 L215.817,335.407 L288.506,335.407 L288.506,315.758 ZM214.458,350.705 L289.865,350.705 C290.613,350.705 291.223,351.314 291.223,352.062 L291.223,374.424 C291.223,375.173 290.613,375.781 289.865,375.781 L214.458,375.781 C213.710,375.781 213.100,375.173 213.100,374.424 L213.100,352.062 C213.100,351.314 213.710,350.705 214.458,350.705 ZM215.817,373.068 L288.506,373.068 L288.506,353.419 L215.817,353.419 L215.817,373.068 ZM250.100,414.263 C257.669,414.263 263.828,420.413 263.828,427.973 C263.828,435.533 257.669,441.689 250.100,441.689 C242.529,441.689 236.369,435.533 236.369,427.973 C236.369,420.413 242.529,414.263 250.100,414.263 ZM250.100,438.975 C256.174,438.975 261.112,434.043 261.112,427.973 C261.112,421.909 256.174,416.977 250.100,416.977 C244.026,416.977 239.086,421.909 239.086,427.973 C239.086,434.043 244.026,438.975 250.100,438.975 ZM250.100,446.039 C254.746,446.039 258.527,449.812 258.527,454.453 C258.527,459.093 254.746,462.873 250.100,462.873 C245.451,462.873 241.670,459.093 241.670,454.453 C241.670,449.812 245.451,446.039 250.100,446.039 ZM250.100,460.159 C253.248,460.159 255.810,457.597 255.810,454.453 C255.810,451.308 253.248,448.753 250.100,448.753 C246.949,448.753 244.387,451.308 244.387,454.453 C244.387,457.597 246.949,460.159 250.100,460.159 ZM129.626,36.988 L205.031,36.988 C205.780,36.988 206.390,37.597 206.390,38.345 L206.390,60.707 C206.390,61.455 205.780,62.064 205.031,62.064 L129.626,62.064 C128.876,62.064 128.267,61.455 128.267,60.707 L128.267,38.345 C128.267,37.597 128.876,36.988 129.626,36.988 ZM130.984,59.350 L203.673,59.350 L203.673,39.702 L130.984,39.702 L130.984,59.350 ZM129.626,74.649 L205.031,74.649 C205.780,74.649 206.390,75.257 206.390,76.006 L206.390,98.368 C206.390,99.116 205.780,99.725 205.031,99.725 L129.626,99.725 C128.876,99.725 128.267,99.116 128.267,98.368 L128.267,76.006 C128.267,75.257 128.876,74.649 129.626,74.649 ZM130.984,97.010 L203.673,97.010 L203.673,77.363 L130.984,77.363 L130.984,97.010 ZM165.267,138.200 C172.835,138.200 178.996,144.356 178.996,151.916 C178.996,159.476 172.835,165.633 165.267,165.633 C157.696,165.633 151.535,159.476 151.535,151.916 C151.535,144.356 157.696,138.200 165.267,138.200 ZM165.267,162.918 C171.341,162.918 176.279,157.986 176.279,151.916 C176.279,145.845 171.341,140.914 165.267,140.914 C159.193,140.914 154.253,145.845 154.253,151.916 C154.253,157.986 159.193,162.918 165.267,162.918 ZM165.267,169.975 C169.913,169.975 173.694,173.755 173.694,178.396 C173.694,183.036 169.913,186.816 165.267,186.816 C160.618,186.816 156.837,183.036 156.837,178.396 C156.837,173.755 160.618,169.975 165.267,169.975 ZM165.267,184.102 C168.415,184.102 170.976,181.540 170.976,178.396 C170.976,175.251 168.415,172.689 165.267,172.689 C162.116,172.689 159.554,175.251 159.554,178.396 C159.554,181.540 162.116,184.102 165.267,184.102 Z" class="cls-1"/>
</svg>
