<svg xmlns="http://www.w3.org/2000/svg" xmlns:xlink="http://www.w3.org/1999/xlink" preserveAspectRatio="xMidYMid" width="500" height="500" viewBox="0 0 500 500">
  <defs>
    <style>
      .cls-1 {
        fill: #000;
        fill-rule: evenodd;
      }
    </style>
  </defs>
  <path d="M317.289,36.044 C302.974,37.241 291.567,42.573 282.421,52.361 C258.037,78.421 257.797,128.394 258.575,146.249 L269.582,146.249 C277.775,146.249 284.435,152.517 284.435,160.222 C284.435,160.769 284.380,161.325 284.300,161.884 L299.026,161.884 C309.531,161.884 318.082,169.901 318.082,179.760 L318.082,469.138 C318.082,478.990 309.531,487.000 299.026,487.000 L198.073,487.000 C187.567,487.000 179.017,478.990 179.017,469.138 L179.017,179.760 C179.017,169.901 187.567,161.884 198.073,161.884 L212.803,161.884 C212.724,161.328 212.671,160.773 212.671,160.222 C212.671,152.517 219.330,146.249 227.516,146.249 L237.222,146.249 C236.197,122.633 237.571,69.962 266.434,39.077 C279.310,25.292 296.017,17.521 316.090,15.976 C317.704,15.809 319.339,16.390 320.597,17.514 C321.855,18.631 322.611,20.228 322.669,21.889 L322.974,29.754 C323.113,33.004 320.612,35.768 317.289,36.044 ZM198.073,166.339 C190.024,166.339 183.481,172.360 183.481,179.760 L183.481,469.138 C183.481,476.531 190.024,482.545 198.073,482.545 L299.026,482.545 C307.075,482.545 313.618,476.531 313.618,469.138 L313.618,179.760 C313.618,172.360 307.075,166.339 299.026,166.339 L198.073,166.339 ZM318.205,22.056 C318.191,21.592 317.972,21.157 317.623,20.837 C317.427,20.663 316.954,20.409 316.431,20.416 C297.507,21.874 281.789,29.180 269.706,42.117 C241.010,72.820 240.625,126.646 241.795,148.360 C241.824,148.970 241.606,149.564 241.185,150.007 C240.763,150.457 240.174,150.704 239.563,150.704 L227.516,150.704 C221.795,150.704 217.135,154.977 217.135,160.222 C217.135,160.763 217.204,161.319 217.329,161.884 L279.773,161.884 C279.901,161.314 279.971,160.758 279.971,160.222 C279.971,154.977 275.311,150.704 269.582,150.704 L256.445,150.704 C255.260,150.704 254.278,149.782 254.213,148.600 C253.086,127.973 253.254,77.006 279.150,49.313 C289.087,38.684 301.440,32.895 316.910,31.604 C317.849,31.524 318.547,30.791 318.511,29.935 L318.205,22.056 ZM292.097,232.403 L204.993,232.403 C202.660,232.403 200.762,230.503 200.762,228.174 L200.762,193.915 C200.762,191.586 202.660,189.693 204.993,189.693 L292.097,189.693 C294.431,189.693 296.337,191.586 296.337,193.915 L296.337,228.174 C296.337,230.503 294.431,232.403 292.097,232.403 ZM293.356,193.915 C293.356,193.226 292.788,192.667 292.097,192.667 L204.993,192.667 C204.303,192.667 203.743,193.226 203.743,193.915 L203.743,228.174 C203.743,228.870 204.303,229.429 204.993,229.429 L292.097,229.429 C292.788,229.429 293.356,228.870 293.356,228.174 L293.356,193.915 ZM225.677,220.353 C220.944,220.353 217.091,216.725 217.091,212.263 C217.091,207.809 220.944,204.181 225.677,204.181 C230.410,204.181 234.263,207.809 234.263,212.263 C234.263,216.725 230.410,220.353 225.677,220.353 ZM225.677,207.156 C222.587,207.156 220.072,209.448 220.072,212.263 C220.072,215.086 222.587,217.378 225.677,217.378 C228.767,217.378 231.283,215.086 231.283,212.263 C231.283,209.448 228.767,207.156 225.677,207.156 ZM221.359,257.114 C222.122,256.701 223.002,256.483 223.983,256.483 L274.104,256.483 C275.064,256.483 275.965,256.701 276.721,257.107 C285.409,261.844 289.946,274.788 289.946,285.119 C289.953,295.284 285.759,304.048 276.750,312.710 C275.769,313.654 274.410,314.198 273.036,314.198 L225.059,314.198 C223.685,314.198 222.326,313.654 221.344,312.718 C212.336,304.040 208.141,295.276 208.141,285.119 C208.141,274.780 212.685,261.844 221.359,257.114 ZM223.409,310.577 C223.838,310.984 224.448,311.223 225.059,311.223 L273.036,311.223 C273.646,311.223 274.257,310.984 274.686,310.570 C283.068,302.510 286.973,294.420 286.965,285.119 C286.965,274.265 281.949,263.347 275.304,259.719 C274.984,259.545 274.569,259.457 274.104,259.457 L223.983,259.457 C223.510,259.457 223.111,259.545 222.791,259.719 C216.139,263.347 211.122,274.265 211.122,285.119 C211.122,294.413 215.026,302.502 223.409,310.577 ZM231.726,264.319 L240.137,264.319 C240.959,264.319 241.628,264.986 241.628,265.806 L241.628,289.247 C241.628,290.067 240.959,290.735 240.137,290.735 L231.726,290.735 C230.904,290.735 230.236,290.067 230.236,289.247 L230.236,265.806 C230.236,264.986 230.904,264.319 231.726,264.319 ZM233.217,287.760 L238.648,287.760 L238.648,267.293 L233.217,267.293 L233.217,287.760 ZM243.875,294.224 C245.183,292.781 247.175,292.048 249.792,292.048 C252.410,292.048 254.409,292.781 255.717,294.231 C257.303,295.973 257.266,298.077 257.237,298.584 L257.237,302.198 C257.237,303.017 256.569,303.685 255.747,303.685 L243.846,303.685 C243.024,303.685 242.355,303.017 242.355,302.198 L242.355,298.526 C242.340,298.418 242.166,296.110 243.875,294.224 ZM245.329,298.396 L245.329,300.711 L254.256,300.711 L254.256,298.526 C254.256,298.483 254.256,298.439 254.264,298.396 C254.271,298.338 254.329,297.104 253.493,296.198 C252.766,295.422 251.516,295.022 249.792,295.022 C248.070,295.022 246.826,295.414 246.099,296.198 C245.242,297.119 245.329,298.381 245.329,298.396 ZM255.478,289.247 L255.478,265.806 C255.478,264.986 256.146,264.319 256.968,264.319 L265.380,264.319 C266.201,264.319 266.871,264.986 266.871,265.806 L266.871,289.247 C266.871,290.067 266.201,290.735 265.380,290.735 L256.968,290.735 C256.146,290.735 255.478,290.067 255.478,289.247 ZM258.458,287.760 L263.890,287.760 L263.890,267.293 L258.458,267.293 L258.458,287.760 ZM221.359,327.503 C222.122,327.090 223.002,326.873 223.983,326.873 L274.104,326.873 C275.071,326.873 275.980,327.090 276.736,327.511 C285.402,332.227 289.946,345.163 289.946,355.508 C289.953,365.673 285.759,374.437 276.750,383.099 C275.769,384.035 274.410,384.579 273.036,384.579 L225.059,384.579 C223.685,384.579 222.326,384.035 221.344,383.099 C212.336,374.437 208.141,365.665 208.141,355.508 C208.141,345.177 212.678,332.241 221.359,327.503 ZM223.409,380.959 C223.838,381.365 224.448,381.605 225.059,381.605 L273.036,381.605 C273.646,381.605 274.257,381.365 274.686,380.952 C283.068,372.899 286.973,364.809 286.965,355.508 C286.965,344.647 281.956,333.728 275.304,330.115 C274.984,329.934 274.569,329.847 274.104,329.847 L223.983,329.847 C223.510,329.847 223.111,329.934 222.791,330.108 C216.139,333.743 211.122,344.662 211.122,355.508 C211.122,364.809 215.026,372.892 223.409,380.959 ZM231.726,334.701 L240.137,334.701 C240.959,334.701 241.628,335.368 241.628,336.188 L241.628,359.636 C241.628,360.456 240.959,361.124 240.137,361.124 L231.726,361.124 C230.904,361.124 230.236,360.456 230.236,359.636 L230.236,336.188 C230.236,335.368 230.904,334.701 231.726,334.701 ZM233.217,358.149 L238.648,358.149 L238.648,337.675 L233.217,337.675 L233.217,358.149 ZM243.867,364.607 C245.183,363.162 247.175,362.430 249.792,362.430 C252.417,362.430 254.409,363.162 255.725,364.613 C257.303,366.347 257.266,368.451 257.237,368.952 L257.237,372.594 C257.237,373.414 256.569,374.082 255.747,374.082 L243.846,374.082 C243.024,374.082 242.355,373.414 242.355,372.594 L242.355,368.894 C242.340,368.785 242.166,366.485 243.867,364.607 ZM245.329,368.763 L245.329,371.107 L254.256,371.107 L254.256,368.894 C254.256,368.850 254.256,368.807 254.264,368.763 C254.264,368.749 254.351,367.501 253.493,366.580 C252.766,365.803 251.523,365.404 249.792,365.404 C248.070,365.404 246.826,365.796 246.099,366.580 C245.242,367.501 245.329,368.749 245.329,368.763 ZM255.478,359.636 L255.478,336.188 C255.478,335.368 256.146,334.701 256.968,334.701 L265.380,334.701 C266.201,334.701 266.871,335.368 266.871,336.188 L266.871,359.636 C266.871,360.456 266.201,361.124 265.380,361.124 L256.968,361.124 C256.146,361.124 255.478,360.456 255.478,359.636 ZM258.458,358.149 L263.890,358.149 L263.890,337.675 L258.458,337.675 L258.458,358.149 ZM221.359,397.892 C222.129,397.479 223.016,397.268 223.983,397.268 L274.104,397.268 C275.064,397.268 275.965,397.486 276.721,397.892 C285.402,402.616 289.946,415.552 289.946,425.890 C289.953,436.047 285.759,444.818 276.750,453.488 C275.777,454.439 274.416,454.983 273.036,454.983 L225.059,454.983 C223.678,454.983 222.318,454.439 221.337,453.488 C212.336,444.812 208.141,436.040 208.141,425.890 C208.141,415.566 212.678,402.630 221.359,397.892 ZM223.409,451.355 C223.845,451.769 224.441,452.008 225.059,452.008 L273.036,452.008 C273.654,452.008 274.250,451.769 274.679,451.355 C283.068,443.281 286.973,435.191 286.965,425.890 C286.965,415.036 281.956,404.117 275.304,400.504 C274.984,400.331 274.569,400.243 274.104,400.243 L223.983,400.243 C223.510,400.243 223.104,400.331 222.776,400.504 C216.139,404.132 211.122,415.043 211.122,425.890 C211.122,435.184 215.026,443.273 223.409,451.355 ZM231.726,405.082 L240.137,405.082 C240.959,405.082 241.628,405.749 241.628,406.570 L241.628,430.018 C241.628,430.838 240.959,431.505 240.137,431.505 L231.726,431.505 C230.904,431.505 230.236,430.838 230.236,430.018 L230.236,406.570 C230.236,405.749 230.904,405.082 231.726,405.082 ZM233.217,428.531 L238.648,428.531 L238.648,408.057 L233.217,408.057 L233.217,428.531 ZM243.875,434.996 C245.183,433.551 247.175,432.819 249.792,432.819 C252.417,432.819 254.409,433.551 255.725,435.002 C257.303,436.744 257.266,438.840 257.237,439.348 L257.237,442.976 C257.237,443.795 256.569,444.463 255.747,444.463 L243.846,444.463 C243.024,444.463 242.355,443.795 242.355,442.976 L242.355,439.290 C242.340,439.181 242.166,436.874 243.875,434.996 ZM245.329,439.145 L245.329,441.489 L254.256,441.489 L254.256,439.290 C254.256,439.246 254.256,439.203 254.264,439.159 C254.264,439.102 254.337,437.876 253.493,436.969 C252.766,436.192 251.523,435.793 249.792,435.793 C248.047,435.793 246.805,436.192 246.077,436.990 C245.249,437.911 245.329,439.131 245.329,439.145 ZM255.478,430.018 L255.478,406.570 C255.478,405.749 256.146,405.082 256.968,405.082 L265.380,405.082 C266.201,405.082 266.871,405.749 266.871,406.570 L266.871,430.018 C266.871,430.838 266.201,431.505 265.380,431.505 L256.968,431.505 C256.146,431.505 255.478,430.838 255.478,430.018 ZM258.458,428.531 L263.890,428.531 L263.890,408.057 L258.458,408.057 L258.458,428.531 Z" class="cls-1"/>
</svg>
