<svg xmlns="http://www.w3.org/2000/svg" xmlns:xlink="http://www.w3.org/1999/xlink" preserveAspectRatio="xMidYMid" width="500" height="500" viewBox="0 0 500 500">
  <defs>
    <style>
      .cls-1 {
        fill: #000;
        fill-rule: evenodd;
      }
    </style>
  </defs>
  <path d="M484.595,393.132 L474.007,393.132 L474.007,403.427 C474.007,404.746 472.942,405.809 471.622,405.809 L443.398,405.809 C442.078,405.809 441.013,404.746 441.013,403.427 L441.013,393.132 L352.722,393.132 L352.722,437.930 C352.722,439.249 351.658,440.312 350.337,440.312 L339.740,440.312 L339.740,450.608 C339.740,451.927 338.677,452.990 337.356,452.990 L309.140,452.990 C307.819,452.990 306.755,451.927 306.755,450.608 L306.755,440.312 L193.379,440.312 L193.379,449.755 C193.379,451.073 192.315,452.136 190.994,452.136 L157.162,452.136 C155.841,452.136 154.777,451.073 154.777,449.755 L154.777,440.312 L147.924,440.312 C146.604,440.312 145.539,439.249 145.539,437.930 L145.539,390.649 L62.842,390.649 L62.842,400.091 C62.842,401.410 61.777,402.473 60.457,402.473 L26.625,402.473 C25.304,402.473 24.240,401.410 24.240,400.091 L24.240,390.649 L17.388,390.649 C16.067,390.649 15.003,389.586 15.003,388.267 L15.003,50.410 C15.003,49.091 16.067,48.028 17.388,48.028 L219.800,48.028 C221.121,48.028 222.185,49.091 222.185,50.410 L222.185,97.691 L279.806,97.691 L279.806,52.893 C279.806,51.574 280.870,50.511 282.191,50.511 L484.595,50.511 C485.916,50.511 486.980,51.574 486.980,52.893 L486.980,390.750 C486.980,392.069 485.916,393.132 484.595,393.132 ZM29.010,397.709 L58.072,397.709 L58.072,391.099 L29.010,391.099 L29.010,397.709 ZM445.783,401.045 L469.237,401.045 L469.237,393.132 L445.783,393.132 L445.783,401.045 ZM352.722,100.073 L352.722,372.960 L358.681,372.960 L358.681,351.701 C358.681,350.824 359.395,350.111 360.274,350.111 L420.333,350.111 L420.333,337.898 L360.274,337.898 C359.395,337.898 358.681,337.184 358.681,336.308 L358.681,310.045 C358.681,309.168 359.395,308.454 360.274,308.454 L420.333,308.454 L420.333,296.242 L360.274,296.242 C359.395,296.242 358.681,295.529 358.681,294.652 L358.681,267.489 C358.681,266.612 359.395,265.898 360.274,265.898 L420.333,265.898 L420.333,253.686 L360.274,253.686 C359.395,253.686 358.681,252.972 358.681,252.096 L358.681,224.025 C358.681,223.148 359.395,222.435 360.274,222.435 L420.333,222.435 L420.333,210.223 L360.274,210.223 C359.395,210.223 358.681,209.509 358.681,208.632 L358.681,181.469 C358.681,180.592 359.395,179.878 360.274,179.878 L420.333,179.878 L420.333,167.666 L360.274,167.666 C359.395,167.666 358.681,166.953 358.681,166.076 L358.681,142.536 C358.681,141.660 359.395,140.945 360.274,140.945 L420.333,140.945 L420.333,128.733 L360.274,128.733 C359.395,128.733 358.681,128.020 358.681,127.143 L358.681,99.072 C358.681,98.196 359.395,97.482 360.274,97.482 L420.333,97.482 L420.333,85.270 L343.734,85.270 L343.734,90.142 C343.734,91.020 343.019,91.733 342.141,91.733 L329.222,91.733 C328.344,91.733 327.630,91.020 327.630,90.142 L327.630,76.441 L325.369,76.441 L325.369,90.142 C325.369,91.020 324.654,91.733 323.776,91.733 L319.364,91.733 C318.486,91.733 317.771,91.020 317.771,90.142 L317.771,76.441 L315.510,76.441 L315.510,90.142 C315.510,91.020 314.795,91.733 313.918,91.733 L308.480,91.733 C307.602,91.733 306.888,91.020 306.888,90.142 L306.888,76.441 L304.634,76.441 L304.634,90.142 C304.634,91.020 303.919,91.733 303.042,91.733 L284.576,91.733 L284.576,97.691 L350.337,97.691 C351.658,97.691 352.722,98.754 352.722,100.073 ZM311.525,448.226 L334.971,448.226 L334.971,440.312 L311.525,440.312 L311.525,448.226 ZM159.547,447.373 L188.609,447.373 L188.609,440.312 L159.547,440.312 L159.547,447.373 ZM150.309,435.548 L308.614,435.548 C308.784,435.510 308.959,435.487 309.140,435.487 C309.322,435.487 309.496,435.510 309.666,435.548 L336.830,435.548 C336.999,435.510 337.174,435.487 337.356,435.487 C337.537,435.487 337.712,435.510 337.882,435.548 L347.953,435.548 L347.953,424.903 L150.309,424.903 L150.309,435.548 ZM150.309,420.139 L347.953,420.139 L347.953,390.750 L347.953,375.342 L347.953,112.308 L150.309,112.308 L150.309,372.859 L150.309,388.267 L150.309,420.139 ZM19.773,385.885 L145.539,385.885 L145.539,375.241 L19.773,375.241 L19.773,385.885 ZM137.162,370.477 L137.095,350.894 L77.346,350.809 C76.468,350.809 75.754,350.095 75.754,349.218 L75.754,333.825 C75.754,332.948 76.468,332.234 77.346,332.234 L136.388,332.234 L136.388,309.152 L77.346,309.152 C76.468,309.152 75.754,308.439 75.754,307.562 L75.754,292.169 C75.754,291.293 76.468,290.578 77.346,290.578 L136.388,290.578 L136.388,266.597 L77.346,266.597 C76.468,266.597 75.754,265.883 75.754,265.006 L75.754,249.613 C75.754,248.736 76.468,248.023 77.346,248.023 L136.388,248.023 L136.388,223.133 L77.346,223.133 C76.468,223.133 75.754,222.419 75.754,221.543 L75.754,206.149 C75.754,205.272 76.468,204.559 77.346,204.559 L136.388,204.559 L136.388,180.577 L77.346,180.577 C76.468,180.577 75.754,179.863 75.754,178.986 L75.754,163.593 C75.754,162.717 76.468,162.002 77.346,162.002 L136.388,162.002 L136.388,141.644 L77.346,141.644 C76.468,141.644 75.754,140.930 75.754,140.053 L75.754,124.660 C75.754,123.784 76.468,123.070 77.346,123.070 L136.388,123.070 L136.388,98.180 L77.346,98.180 C76.468,98.180 75.754,97.467 75.754,96.590 L75.754,81.196 C75.754,80.320 76.468,79.606 77.346,79.606 L157.131,79.606 C158.008,79.606 158.723,80.320 158.723,81.196 L158.723,88.552 L172.986,88.552 L172.986,72.367 C172.986,71.491 173.701,70.777 174.579,70.777 L180.025,70.777 C180.902,70.777 181.618,71.491 181.618,72.367 L181.618,88.552 L183.870,88.552 L183.870,72.367 C183.870,71.491 184.585,70.777 185.463,70.777 L190.901,70.777 C191.778,70.777 192.494,71.491 192.494,72.367 L192.494,88.552 L193.728,88.552 L193.728,72.367 C193.728,71.491 194.443,70.777 195.321,70.777 L200.759,70.777 C201.637,70.777 202.352,71.491 202.352,72.367 L202.352,88.552 L217.415,88.552 L217.415,62.646 L19.773,62.646 L19.773,370.477 L137.162,370.477 ZM19.773,52.792 L19.773,57.882 L217.415,57.882 L217.415,52.792 L19.773,52.792 ZM217.415,91.733 L200.759,91.733 C199.882,91.733 199.167,91.020 199.167,90.142 L199.167,73.958 L196.913,73.958 L196.913,90.142 C196.913,91.020 196.199,91.733 195.321,91.733 L190.901,91.733 C190.023,91.733 189.308,91.020 189.308,90.142 L189.308,73.958 L187.055,73.958 L187.055,90.142 C187.055,91.020 186.340,91.733 185.463,91.733 L180.025,91.733 C179.146,91.733 178.432,91.020 178.432,90.142 L178.432,73.958 L176.171,73.958 L176.171,90.142 C176.171,91.020 175.457,91.733 174.579,91.733 L157.131,91.733 C156.253,91.733 155.538,91.020 155.538,90.142 L155.538,82.787 L78.939,82.787 L78.939,94.999 L137.980,94.999 C138.859,94.999 139.573,95.713 139.573,96.590 L139.573,124.660 C139.573,125.537 138.859,126.251 137.980,126.251 L78.939,126.251 L78.939,138.463 L137.980,138.463 C138.859,138.463 139.573,139.177 139.573,140.053 L139.573,163.593 C139.573,164.470 138.859,165.184 137.980,165.184 L78.939,165.184 L78.939,177.395 L137.980,177.395 C138.859,177.395 139.573,178.110 139.573,178.986 L139.573,206.149 C139.573,207.026 138.859,207.740 137.980,207.740 L78.939,207.740 L78.939,219.952 L137.980,219.952 C138.859,219.952 139.573,220.665 139.573,221.543 L139.573,249.613 C139.573,250.489 138.859,251.204 137.980,251.204 L78.939,251.204 L78.939,263.416 L137.980,263.416 C138.859,263.416 139.573,264.129 139.573,265.006 L139.573,292.169 C139.573,293.046 138.859,293.759 137.980,293.759 L78.939,293.759 L78.939,305.971 L137.980,305.971 C138.859,305.971 139.573,306.686 139.573,307.562 L139.573,333.825 C139.573,334.702 138.859,335.416 137.980,335.416 L78.939,335.416 L78.939,347.628 L138.680,347.713 C139.558,347.713 140.264,348.427 140.272,349.295 L140.347,370.477 L145.539,370.477 L145.539,100.073 C145.539,98.754 146.604,97.691 147.924,97.691 L217.415,97.691 L217.415,91.733 ZM150.309,102.455 L150.309,107.545 L347.953,107.545 L347.953,102.455 L150.309,102.455 ZM482.210,55.275 L284.576,55.275 L284.576,60.365 L482.210,60.365 L482.210,55.275 ZM482.210,65.129 L284.576,65.129 L284.576,88.552 L301.449,88.552 L301.449,74.850 C301.449,73.974 302.164,73.260 303.042,73.260 L308.480,73.260 C309.358,73.260 310.072,73.974 310.072,74.850 L310.072,88.552 L312.325,88.552 L312.325,74.850 C312.325,73.974 313.040,73.260 313.918,73.260 L319.364,73.260 C320.241,73.260 320.956,73.974 320.956,74.850 L320.956,88.552 L322.183,88.552 L322.183,74.850 C322.183,73.974 322.899,73.260 323.776,73.260 L329.222,73.260 C330.100,73.260 330.815,73.974 330.815,74.850 L330.815,88.552 L340.549,88.552 L340.549,83.679 C340.549,82.803 341.263,82.088 342.141,82.088 L421.926,82.088 C422.803,82.088 423.518,82.803 423.518,83.679 L423.518,99.072 C423.518,99.949 422.803,100.663 421.926,100.663 L361.866,100.663 L361.866,125.552 L421.926,125.552 C422.803,125.552 423.518,126.267 423.518,127.143 L423.518,142.536 C423.518,143.413 422.803,144.127 421.926,144.127 L361.866,144.127 L361.866,164.485 L421.926,164.485 C422.803,164.485 423.518,165.200 423.518,166.076 L423.518,181.469 C423.518,182.346 422.803,183.059 421.926,183.059 L361.866,183.059 L361.866,207.042 L421.926,207.042 C422.803,207.042 423.518,207.755 423.518,208.632 L423.518,224.025 C423.518,224.902 422.803,225.616 421.926,225.616 L361.866,225.616 L361.866,250.505 L421.926,250.505 C422.803,250.505 423.518,251.219 423.518,252.096 L423.518,267.489 C423.518,268.365 422.803,269.080 421.926,269.080 L361.866,269.080 L361.866,293.061 L421.926,293.061 C422.803,293.061 423.518,293.775 423.518,294.652 L423.518,310.045 C423.518,310.922 422.803,311.635 421.926,311.635 L361.866,311.635 L361.866,334.717 L421.926,334.717 C422.803,334.717 423.518,335.431 423.518,336.308 L423.518,351.701 C423.518,352.577 422.803,353.292 421.926,353.292 L361.866,353.292 L361.866,372.960 L482.210,372.960 L482.210,65.129 ZM482.210,377.723 L352.722,377.723 L352.722,388.368 L442.898,388.368 C443.059,388.334 443.226,388.314 443.398,388.314 L471.622,388.314 C471.794,388.314 471.961,388.334 472.122,388.368 L482.210,388.368 L482.210,377.723 ZM466.805,387.243 L460.007,387.243 C459.130,387.243 458.415,386.529 458.415,385.653 L458.415,380.905 C458.415,380.028 459.130,379.314 460.007,379.314 L466.805,379.314 C467.683,379.314 468.398,380.028 468.398,380.905 L468.398,385.653 C468.398,386.529 467.683,387.243 466.805,387.243 ZM465.212,382.495 L461.600,382.495 L461.600,384.062 L465.212,384.062 L465.212,382.495 ZM450.483,387.243 L443.685,387.243 C442.808,387.243 442.093,386.529 442.093,385.653 L442.093,380.905 C442.093,380.028 442.808,379.314 443.685,379.314 L450.483,379.314 C451.361,379.314 452.075,380.028 452.075,380.905 L452.075,385.653 C452.075,386.529 451.361,387.243 450.483,387.243 ZM448.890,382.495 L445.278,382.495 L445.278,384.062 L448.890,384.062 L448.890,382.495 ZM434.162,387.243 L427.364,387.243 C426.485,387.243 425.771,386.529 425.771,385.653 L425.771,380.905 C425.771,380.028 426.485,379.314 427.364,379.314 L434.162,379.314 C435.039,379.314 435.754,380.028 435.754,380.905 L435.754,385.653 C435.754,386.529 435.039,387.243 434.162,387.243 ZM432.569,382.495 L428.956,382.495 L428.956,384.062 L432.569,384.062 L432.569,382.495 ZM437.781,156.789 L443.220,156.789 C444.097,156.789 444.812,157.502 444.812,158.380 L444.812,189.166 C444.812,190.042 444.097,190.756 443.220,190.756 L437.781,190.756 C436.904,190.756 436.189,190.042 436.189,189.166 L436.189,158.380 C436.189,157.502 436.904,156.789 437.781,156.789 ZM439.374,187.575 L441.627,187.575 L441.627,159.970 L439.374,159.970 L439.374,187.575 ZM438.116,198.212 L443.561,198.212 C444.440,198.212 445.153,198.926 445.153,199.802 L445.153,230.589 C445.153,231.466 444.440,232.179 443.561,232.179 L438.116,232.179 C437.237,232.179 436.523,231.466 436.523,230.589 L436.523,199.802 C436.523,198.926 437.237,198.212 438.116,198.212 ZM439.707,228.998 L441.968,228.998 L441.968,201.393 L439.707,201.393 L439.707,228.998 ZM438.116,241.676 L443.561,241.676 C444.440,241.676 445.153,242.390 445.153,243.266 L445.153,274.052 C445.153,274.929 444.440,275.643 443.561,275.643 L438.116,275.643 C437.237,275.643 436.523,274.929 436.523,274.052 L436.523,243.266 C436.523,242.390 437.237,241.676 438.116,241.676 ZM439.707,272.462 L441.968,272.462 L441.968,244.857 L439.707,244.857 L439.707,272.462 ZM438.116,285.140 L443.561,285.140 C444.440,285.140 445.153,285.853 445.153,286.730 L445.153,317.516 C445.153,318.393 444.440,319.106 443.561,319.106 L438.116,319.106 C437.237,319.106 436.523,318.393 436.523,317.516 L436.523,286.730 C436.523,285.853 437.237,285.140 438.116,285.140 ZM439.707,315.926 L441.968,315.926 L441.968,288.320 L439.707,288.320 L439.707,315.926 ZM438.116,328.604 L443.561,328.604 C444.440,328.604 445.153,329.317 445.153,330.194 L445.153,360.981 C445.153,361.857 444.440,362.570 443.561,362.570 L438.116,362.570 C437.237,362.570 436.523,361.857 436.523,360.981 L436.523,330.194 C436.523,329.317 437.237,328.604 438.116,328.604 ZM439.707,359.390 L441.968,359.390 L441.968,331.784 L439.707,331.784 L439.707,359.390 ZM448.510,156.789 L453.956,156.789 C454.833,156.789 455.548,157.502 455.548,158.380 L455.548,189.166 C455.548,190.042 454.833,190.756 453.956,190.756 L448.510,190.756 C447.632,190.756 446.917,190.042 446.917,189.166 L446.917,158.380 C446.917,157.502 447.632,156.789 448.510,156.789 ZM450.102,187.575 L452.363,187.575 L452.363,159.970 L450.102,159.970 L450.102,187.575 ZM448.852,198.212 L454.290,198.212 C455.168,198.212 455.882,198.926 455.882,199.802 L455.882,230.589 C455.882,231.466 455.168,232.179 454.290,232.179 L448.852,232.179 C447.974,232.179 447.259,231.466 447.259,230.589 L447.259,199.802 C447.259,198.926 447.974,198.212 448.852,198.212 ZM450.445,228.998 L452.698,228.998 L452.698,201.393 L450.445,201.393 L450.445,228.998 ZM448.852,241.676 L454.290,241.676 C455.168,241.676 455.882,242.390 455.882,243.266 L455.882,274.052 C455.882,274.929 455.168,275.643 454.290,275.643 L448.852,275.643 C447.974,275.643 447.259,274.929 447.259,274.052 L447.259,243.266 C447.259,242.390 447.974,241.676 448.852,241.676 ZM450.445,272.462 L452.698,272.462 L452.698,244.857 L450.445,244.857 L450.445,272.462 ZM448.852,285.140 L454.290,285.140 C455.168,285.140 455.882,285.853 455.882,286.730 L455.882,317.516 C455.882,318.393 455.168,319.106 454.290,319.106 L448.852,319.106 C447.974,319.106 447.259,318.393 447.259,317.516 L447.259,286.730 C447.259,285.853 447.974,285.140 448.852,285.140 ZM450.445,315.926 L452.698,315.926 L452.698,288.320 L450.445,288.320 L450.445,315.926 ZM448.852,328.604 L454.290,328.604 C455.168,328.604 455.882,329.317 455.882,330.194 L455.882,360.981 C455.882,361.857 455.168,362.570 454.290,362.570 L448.852,362.570 C447.974,362.570 447.259,361.857 447.259,360.981 L447.259,330.194 C447.259,329.317 447.974,328.604 448.852,328.604 ZM450.445,359.390 L452.698,359.390 L452.698,331.784 L450.445,331.784 L450.445,359.390 ZM458.904,156.789 L464.350,156.789 C465.228,156.789 465.943,157.502 465.943,158.380 L465.943,189.166 C465.943,190.042 465.228,190.756 464.350,190.756 L458.904,190.756 C458.027,190.756 457.312,190.042 457.312,189.166 L457.312,158.380 C457.312,157.502 458.027,156.789 458.904,156.789 ZM460.497,187.575 L462.758,187.575 L462.758,159.970 L460.497,159.970 L460.497,187.575 ZM459.246,198.212 L464.684,198.212 C465.561,198.212 466.277,198.926 466.277,199.802 L466.277,230.589 C466.277,231.466 465.561,232.179 464.684,232.179 L459.246,232.179 C458.368,232.179 457.654,231.466 457.654,230.589 L457.654,199.802 C457.654,198.926 458.368,198.212 459.246,198.212 ZM460.839,228.998 L463.092,228.998 L463.092,201.393 L460.839,201.393 L460.839,228.998 ZM459.246,241.676 L464.684,241.676 C465.561,241.676 466.277,242.390 466.277,243.266 L466.277,274.052 C466.277,274.929 465.561,275.643 464.684,275.643 L459.246,275.643 C458.368,275.643 457.654,274.929 457.654,274.052 L457.654,243.266 C457.654,242.390 458.368,241.676 459.246,241.676 ZM460.839,272.462 L463.092,272.462 L463.092,244.857 L460.839,244.857 L460.839,272.462 ZM459.246,285.140 L464.684,285.140 C465.561,285.140 466.277,285.853 466.277,286.730 L466.277,317.516 C466.277,318.393 465.561,319.106 464.684,319.106 L459.246,319.106 C458.368,319.106 457.654,318.393 457.654,317.516 L457.654,286.730 C457.654,285.853 458.368,285.140 459.246,285.140 ZM460.839,315.926 L463.092,315.926 L463.092,288.320 L460.839,288.320 L460.839,315.926 ZM459.246,328.604 L464.684,328.604 C465.561,328.604 466.277,329.317 466.277,330.194 L466.277,360.981 C466.277,361.857 465.561,362.570 464.684,362.570 L459.246,362.570 C458.368,362.570 457.654,361.857 457.654,360.981 L457.654,330.194 C457.654,329.317 458.368,328.604 459.246,328.604 ZM460.839,359.390 L463.092,359.390 L463.092,331.784 L460.839,331.784 L460.839,359.390 ZM464.684,150.691 L459.246,150.691 C458.368,150.691 457.654,149.977 457.654,149.100 L457.654,118.314 C457.654,117.437 458.368,116.723 459.246,116.723 L464.684,116.723 C465.561,116.723 466.277,117.437 466.277,118.314 L466.277,149.100 C466.277,149.977 465.561,150.691 464.684,150.691 ZM463.092,119.905 L460.839,119.905 L460.839,147.509 L463.092,147.509 L463.092,119.905 ZM464.684,107.227 L459.246,107.227 C458.368,107.227 457.654,106.513 457.654,105.636 L457.654,74.850 C457.654,73.974 458.368,73.260 459.246,73.260 L464.684,73.260 C465.561,73.260 466.277,73.974 466.277,74.850 L466.277,105.636 C466.277,106.513 465.561,107.227 464.684,107.227 ZM463.092,76.441 L460.839,76.441 L460.839,104.046 L463.092,104.046 L463.092,76.441 ZM454.127,150.691 L448.681,150.691 C447.803,150.691 447.088,149.977 447.088,149.100 L447.088,118.314 C447.088,117.437 447.803,116.723 448.681,116.723 L454.127,116.723 C455.004,116.723 455.719,117.437 455.719,118.314 L455.719,149.100 C455.719,149.977 455.004,150.691 454.127,150.691 ZM452.534,119.905 L450.273,119.905 L450.273,147.509 L452.534,147.509 L452.534,119.905 ZM454.127,107.227 L448.681,107.227 C447.803,107.227 447.088,106.513 447.088,105.636 L447.088,74.850 C447.088,73.974 447.803,73.260 448.681,73.260 L454.127,73.260 C455.004,73.260 455.719,73.974 455.719,74.850 L455.719,105.636 C455.719,106.513 455.004,107.227 454.127,107.227 ZM452.534,76.441 L450.273,76.441 L450.273,104.046 L452.534,104.046 L452.534,76.441 ZM443.561,150.691 L438.116,150.691 C437.237,150.691 436.523,149.977 436.523,149.100 L436.523,118.314 C436.523,117.437 437.237,116.723 438.116,116.723 L443.561,116.723 C444.440,116.723 445.153,117.437 445.153,118.314 L445.153,149.100 C445.153,149.977 444.440,150.691 443.561,150.691 ZM441.968,119.905 L439.707,119.905 L439.707,147.509 L441.968,147.509 L441.968,119.905 ZM443.561,107.227 L438.116,107.227 C437.237,107.227 436.523,106.513 436.523,105.636 L436.523,74.850 C436.523,73.974 437.237,73.260 438.116,73.260 L443.561,73.260 C444.440,73.260 445.153,73.974 445.153,74.850 L445.153,105.636 C445.153,106.513 444.440,107.227 443.561,107.227 ZM441.968,76.441 L439.707,76.441 L439.707,104.046 L441.968,104.046 L441.968,76.441 ZM37.905,154.306 L43.343,154.306 C44.221,154.306 44.935,155.020 44.935,155.897 L44.935,186.683 C44.935,187.559 44.221,188.274 43.343,188.274 L37.905,188.274 C37.027,188.274 36.312,187.559 36.312,186.683 L36.312,155.897 C36.312,155.020 37.027,154.306 37.905,154.306 ZM39.497,185.093 L41.751,185.093 L41.751,157.487 L39.497,157.487 L39.497,185.093 ZM38.247,195.729 L43.684,195.729 C44.563,195.729 45.277,196.443 45.277,197.320 L45.277,228.106 C45.277,228.983 44.563,229.696 43.684,229.696 L38.247,229.696 C37.369,229.696 36.654,228.983 36.654,228.106 L36.654,197.320 C36.654,196.443 37.369,195.729 38.247,195.729 ZM39.839,226.515 L42.092,226.515 L42.092,198.910 L39.839,198.910 L39.839,226.515 ZM38.247,239.193 L43.684,239.193 C44.563,239.193 45.277,239.907 45.277,240.783 L45.277,271.569 C45.277,272.447 44.563,273.160 43.684,273.160 L38.247,273.160 C37.369,273.160 36.654,272.447 36.654,271.569 L36.654,240.783 C36.654,239.907 37.369,239.193 38.247,239.193 ZM39.839,269.979 L42.092,269.979 L42.092,242.374 L39.839,242.374 L39.839,269.979 ZM38.247,282.657 L43.684,282.657 C44.563,282.657 45.277,283.371 45.277,284.247 L45.277,315.033 C45.277,315.910 44.563,316.624 43.684,316.624 L38.247,316.624 C37.369,316.624 36.654,315.910 36.654,315.033 L36.654,284.247 C36.654,283.371 37.369,282.657 38.247,282.657 ZM39.839,313.443 L42.092,313.443 L42.092,285.838 L39.839,285.838 L39.839,313.443 ZM38.247,326.121 L43.684,326.121 C44.563,326.121 45.277,326.835 45.277,327.712 L45.277,358.498 C45.277,359.374 44.563,360.088 43.684,360.088 L38.247,360.088 C37.369,360.088 36.654,359.374 36.654,358.498 L36.654,327.712 C36.654,326.835 37.369,326.121 38.247,326.121 ZM39.839,356.907 L42.092,356.907 L42.092,329.301 L39.839,329.301 L39.839,356.907 ZM48.493,154.306 L53.931,154.306 C54.810,154.306 55.524,155.020 55.524,155.897 L55.524,186.683 C55.524,187.559 54.810,188.274 53.931,188.274 L48.493,188.274 C47.616,188.274 46.901,187.559 46.901,186.683 L46.901,155.897 C46.901,155.020 47.616,154.306 48.493,154.306 ZM50.086,185.093 L52.339,185.093 L52.339,157.487 L50.086,157.487 L50.086,185.093 ZM48.835,195.729 L54.274,195.729 C55.151,195.729 55.866,196.443 55.866,197.320 L55.866,228.106 C55.866,228.983 55.151,229.696 54.274,229.696 L48.835,229.696 C47.957,229.696 47.243,228.983 47.243,228.106 L47.243,197.320 C47.243,196.443 47.957,195.729 48.835,195.729 ZM50.428,226.515 L52.681,226.515 L52.681,198.910 L50.428,198.910 L50.428,226.515 ZM48.835,239.193 L54.274,239.193 C55.151,239.193 55.866,239.907 55.866,240.783 L55.866,271.569 C55.866,272.447 55.151,273.160 54.274,273.160 L48.835,273.160 C47.957,273.160 47.243,272.447 47.243,271.569 L47.243,240.783 C47.243,239.907 47.957,239.193 48.835,239.193 ZM50.428,269.979 L52.681,269.979 L52.681,242.374 L50.428,242.374 L50.428,269.979 ZM48.835,282.657 L54.274,282.657 C55.151,282.657 55.866,283.371 55.866,284.247 L55.866,315.033 C55.866,315.910 55.151,316.624 54.274,316.624 L48.835,316.624 C47.957,316.624 47.243,315.910 47.243,315.033 L47.243,284.247 C47.243,283.371 47.957,282.657 48.835,282.657 ZM50.428,313.443 L52.681,313.443 L52.681,285.838 L50.428,285.838 L50.428,313.443 ZM48.835,326.121 L54.274,326.121 C55.151,326.121 55.866,326.835 55.866,327.712 L55.866,358.498 C55.866,359.374 55.151,360.088 54.274,360.088 L48.835,360.088 C47.957,360.088 47.243,359.374 47.243,358.498 L47.243,327.712 C47.243,326.835 47.957,326.121 48.835,326.121 ZM50.428,356.907 L52.681,356.907 L52.681,329.301 L50.428,329.301 L50.428,356.907 ZM58.981,70.777 L64.427,70.777 C65.305,70.777 66.019,71.491 66.019,72.367 L66.019,103.154 C66.019,104.031 65.305,104.744 64.427,104.744 L58.981,104.744 C58.103,104.744 57.389,104.031 57.389,103.154 L57.389,72.367 C57.389,71.491 58.103,70.777 58.981,70.777 ZM60.574,101.563 L62.834,101.563 L62.834,73.958 L60.574,73.958 L60.574,101.563 ZM58.988,154.306 L64.434,154.306 C65.313,154.306 66.027,155.020 66.027,155.897 L66.027,186.683 C66.027,187.559 65.313,188.274 64.434,188.274 L58.988,188.274 C58.111,188.274 57.397,187.559 57.397,186.683 L57.397,155.897 C57.397,155.020 58.111,154.306 58.988,154.306 ZM60.581,185.093 L62.842,185.093 L62.842,157.487 L60.581,157.487 L60.581,185.093 ZM59.331,195.729 L64.769,195.729 C65.647,195.729 66.361,196.443 66.361,197.320 L66.361,228.106 C66.361,228.983 65.647,229.696 64.769,229.696 L59.331,229.696 C58.453,229.696 57.738,228.983 57.738,228.106 L57.738,197.320 C57.738,196.443 58.453,195.729 59.331,195.729 ZM60.923,226.515 L63.176,226.515 L63.176,198.910 L60.923,198.910 L60.923,226.515 ZM59.331,239.193 L64.769,239.193 C65.647,239.193 66.361,239.907 66.361,240.783 L66.361,271.569 C66.361,272.447 65.647,273.160 64.769,273.160 L59.331,273.160 C58.453,273.160 57.738,272.447 57.738,271.569 L57.738,240.783 C57.738,239.907 58.453,239.193 59.331,239.193 ZM60.923,269.979 L63.176,269.979 L63.176,242.374 L60.923,242.374 L60.923,269.979 ZM59.331,282.657 L64.769,282.657 C65.647,282.657 66.361,283.371 66.361,284.247 L66.361,315.033 C66.361,315.910 65.647,316.624 64.769,316.624 L59.331,316.624 C58.453,316.624 57.738,315.910 57.738,315.033 L57.738,284.247 C57.738,283.371 58.453,282.657 59.331,282.657 ZM60.923,313.443 L63.176,313.443 L63.176,285.838 L60.923,285.838 L60.923,313.443 ZM59.331,326.121 L64.769,326.121 C65.647,326.121 66.361,326.835 66.361,327.712 L66.361,358.498 C66.361,359.374 65.647,360.088 64.769,360.088 L59.331,360.088 C58.453,360.088 57.738,359.374 57.738,358.498 L57.738,327.712 C57.738,326.835 58.453,326.121 59.331,326.121 ZM60.923,356.907 L63.176,356.907 L63.176,329.301 L60.923,329.301 L60.923,356.907 ZM64.769,148.208 L59.331,148.208 C58.453,148.208 57.738,147.494 57.738,146.617 L57.738,115.831 C57.738,114.955 58.453,114.241 59.331,114.241 L64.769,114.241 C65.647,114.241 66.361,114.955 66.361,115.831 L66.361,146.617 C66.361,147.494 65.647,148.208 64.769,148.208 ZM63.176,117.422 L60.923,117.422 L60.923,145.027 L63.176,145.027 L63.176,117.422 ZM54.274,148.208 L48.835,148.208 C47.957,148.208 47.243,147.494 47.243,146.617 L47.243,115.831 C47.243,114.955 47.957,114.241 48.835,114.241 L54.274,114.241 C55.151,114.241 55.866,114.955 55.866,115.831 L55.866,146.617 C55.866,147.494 55.151,148.208 54.274,148.208 ZM52.681,117.422 L50.428,117.422 L50.428,145.027 L52.681,145.027 L52.681,117.422 ZM54.001,104.744 L48.563,104.744 C47.685,104.744 46.971,104.031 46.971,103.154 L46.971,72.367 C46.971,71.491 47.685,70.777 48.563,70.777 L54.001,70.777 C54.879,70.777 55.594,71.491 55.594,72.367 L55.594,103.154 C55.594,104.031 54.879,104.744 54.001,104.744 ZM52.409,73.958 L50.156,73.958 L50.156,101.563 L52.409,101.563 L52.409,73.958 ZM43.684,148.208 L38.247,148.208 C37.369,148.208 36.654,147.494 36.654,146.617 L36.654,115.831 C36.654,114.955 37.369,114.241 38.247,114.241 L43.684,114.241 C44.563,114.241 45.277,114.955 45.277,115.831 L45.277,146.617 C45.277,147.494 44.563,148.208 43.684,148.208 ZM42.092,117.422 L39.839,117.422 L39.839,145.027 L42.092,145.027 L42.092,117.422 ZM43.684,104.744 L38.247,104.744 C37.369,104.744 36.654,104.031 36.654,103.154 L36.654,72.367 C36.654,71.491 37.369,70.777 38.247,70.777 L43.684,70.777 C44.563,70.777 45.277,71.491 45.277,72.367 L45.277,103.154 C45.277,104.031 44.563,104.744 43.684,104.744 ZM42.092,73.958 L39.839,73.958 L39.839,101.563 L42.092,101.563 L42.092,73.958 ZM168.045,203.969 L173.491,203.969 C174.370,203.969 175.084,204.683 175.084,205.560 L175.084,236.346 C175.084,237.222 174.370,237.936 173.491,237.936 L168.045,237.936 C167.167,237.936 166.452,237.222 166.452,236.346 L166.452,205.560 C166.452,204.683 167.167,203.969 168.045,203.969 ZM169.638,234.756 L171.898,234.756 L171.898,207.150 L169.638,207.150 L169.638,234.756 ZM168.387,245.392 L173.826,245.392 C174.703,245.392 175.418,246.106 175.418,246.983 L175.418,277.769 C175.418,278.646 174.703,279.360 173.826,279.360 L168.387,279.360 C167.509,279.360 166.794,278.646 166.794,277.769 L166.794,246.983 C166.794,246.106 167.509,245.392 168.387,245.392 ZM169.980,276.178 L172.233,276.178 L172.233,248.573 L169.980,248.573 L169.980,276.178 ZM168.387,288.856 L173.826,288.856 C174.703,288.856 175.418,289.570 175.418,290.447 L175.418,321.233 C175.418,322.110 174.703,322.823 173.826,322.823 L168.387,322.823 C167.509,322.823 166.794,322.110 166.794,321.233 L166.794,290.447 C166.794,289.570 167.509,288.856 168.387,288.856 ZM169.980,319.642 L172.233,319.642 L172.233,292.037 L169.980,292.037 L169.980,319.642 ZM168.387,332.320 L173.826,332.320 C174.703,332.320 175.418,333.034 175.418,333.910 L175.418,364.696 C175.418,365.574 174.703,366.287 173.826,366.287 L168.387,366.287 C167.509,366.287 166.794,365.574 166.794,364.696 L166.794,333.910 C166.794,333.034 167.509,332.320 168.387,332.320 ZM169.980,363.106 L172.233,363.106 L172.233,335.501 L169.980,335.501 L169.980,363.106 ZM168.387,375.783 L173.826,375.783 C174.703,375.783 175.418,376.498 175.418,377.374 L175.418,408.160 C175.418,409.037 174.703,409.751 173.826,409.751 L168.387,409.751 C167.509,409.751 166.794,409.037 166.794,408.160 L166.794,377.374 C166.794,376.498 167.509,375.783 168.387,375.783 ZM169.980,406.570 L172.233,406.570 L172.233,378.964 L169.980,378.964 L169.980,406.570 ZM178.782,203.969 L184.219,203.969 C185.098,203.969 185.812,204.683 185.812,205.560 L185.812,236.346 C185.812,237.222 185.098,237.936 184.219,237.936 L178.782,237.936 C177.904,237.936 177.189,237.222 177.189,236.346 L177.189,205.560 C177.189,204.683 177.904,203.969 178.782,203.969 ZM180.374,234.756 L182.627,234.756 L182.627,207.150 L180.374,207.150 L180.374,234.756 ZM179.124,245.392 L184.561,245.392 C185.440,245.392 186.154,246.106 186.154,246.983 L186.154,277.769 C186.154,278.646 185.440,279.360 184.561,279.360 L179.124,279.360 C178.246,279.360 177.531,278.646 177.531,277.769 L177.531,246.983 C177.531,246.106 178.246,245.392 179.124,245.392 ZM180.716,276.178 L182.969,276.178 L182.969,248.573 L180.716,248.573 L180.716,276.178 ZM179.124,288.856 L184.561,288.856 C185.440,288.856 186.154,289.570 186.154,290.447 L186.154,321.233 C186.154,322.110 185.440,322.823 184.561,322.823 L179.124,322.823 C178.246,322.823 177.531,322.110 177.531,321.233 L177.531,290.447 C177.531,289.570 178.246,288.856 179.124,288.856 ZM180.716,319.642 L182.969,319.642 L182.969,292.037 L180.716,292.037 L180.716,319.642 ZM179.124,332.320 L184.561,332.320 C185.440,332.320 186.154,333.034 186.154,333.910 L186.154,364.696 C186.154,365.574 185.440,366.287 184.561,366.287 L179.124,366.287 C178.246,366.287 177.531,365.574 177.531,364.696 L177.531,333.910 C177.531,333.034 178.246,332.320 179.124,332.320 ZM180.716,363.106 L182.969,363.106 L182.969,335.501 L180.716,335.501 L180.716,363.106 ZM179.124,375.783 L184.561,375.783 C185.440,375.783 186.154,376.498 186.154,377.374 L186.154,408.160 C186.154,409.037 185.440,409.751 184.561,409.751 L179.124,409.751 C178.246,409.751 177.531,409.037 177.531,408.160 L177.531,377.374 C177.531,376.498 178.246,375.783 179.124,375.783 ZM180.716,406.570 L182.969,406.570 L182.969,378.964 L180.716,378.964 L180.716,406.570 ZM189.176,203.969 L194.614,203.969 C195.492,203.969 196.207,204.683 196.207,205.560 L196.207,236.346 C196.207,237.222 195.492,237.936 194.614,237.936 L189.176,237.936 C188.298,237.936 187.584,237.222 187.584,236.346 L187.584,205.560 C187.584,204.683 188.298,203.969 189.176,203.969 ZM190.769,234.756 L193.022,234.756 L193.022,207.150 L190.769,207.150 L190.769,234.756 ZM189.518,245.392 L194.956,245.392 C195.834,245.392 196.549,246.106 196.549,246.983 L196.549,277.769 C196.549,278.646 195.834,279.360 194.956,279.360 L189.518,279.360 C188.640,279.360 187.926,278.646 187.926,277.769 L187.926,246.983 C187.926,246.106 188.640,245.392 189.518,245.392 ZM191.110,276.178 L193.363,276.178 L193.363,248.573 L191.110,248.573 L191.110,276.178 ZM189.518,288.856 L194.956,288.856 C195.834,288.856 196.549,289.570 196.549,290.447 L196.549,321.233 C196.549,322.110 195.834,322.823 194.956,322.823 L189.518,322.823 C188.640,322.823 187.926,322.110 187.926,321.233 L187.926,290.447 C187.926,289.570 188.640,288.856 189.518,288.856 ZM191.110,319.642 L193.363,319.642 L193.363,292.037 L191.110,292.037 L191.110,319.642 ZM189.518,332.320 L194.956,332.320 C195.834,332.320 196.549,333.034 196.549,333.910 L196.549,364.696 C196.549,365.574 195.834,366.287 194.956,366.287 L189.518,366.287 C188.640,366.287 187.926,365.574 187.926,364.696 L187.926,333.910 C187.926,333.034 188.640,332.320 189.518,332.320 ZM191.110,363.106 L193.363,363.106 L193.363,335.501 L191.110,335.501 L191.110,363.106 ZM189.518,375.783 L194.956,375.783 C195.834,375.783 196.549,376.498 196.549,377.374 L196.549,408.160 C196.549,409.037 195.834,409.751 194.956,409.751 L189.518,409.751 C188.640,409.751 187.926,409.037 187.926,408.160 L187.926,377.374 C187.926,376.498 188.640,375.783 189.518,375.783 ZM191.110,406.570 L193.363,406.570 L193.363,378.964 L191.110,378.964 L191.110,406.570 ZM207.876,129.269 L287.660,129.269 C288.537,129.269 289.253,129.983 289.253,130.859 L289.253,146.253 C289.253,147.130 288.537,147.843 287.660,147.843 L207.876,147.843 C206.998,147.843 206.283,147.130 206.283,146.253 L206.283,130.859 C206.283,129.983 206.998,129.269 207.876,129.269 ZM209.468,144.662 L286.067,144.662 L286.067,132.450 L209.468,132.450 L209.468,144.662 ZM207.876,172.733 L287.660,172.733 C288.537,172.733 289.253,173.447 289.253,174.323 L289.253,189.716 C289.253,190.593 288.537,191.307 287.660,191.307 L207.876,191.307 C206.998,191.307 206.283,190.593 206.283,189.716 L206.283,174.323 C206.283,173.447 206.998,172.733 207.876,172.733 ZM209.468,188.126 L286.067,188.126 L286.067,175.914 L209.468,175.914 L209.468,188.126 ZM207.876,211.665 L287.660,211.665 C288.537,211.665 289.253,212.379 289.253,213.256 L289.253,228.649 C289.253,229.526 288.537,230.240 287.660,230.240 L207.876,230.240 C206.998,230.240 206.283,229.526 206.283,228.649 L206.283,213.256 C206.283,212.379 206.998,211.665 207.876,211.665 ZM209.468,227.059 L286.067,227.059 L286.067,214.847 L209.468,214.847 L209.468,227.059 ZM207.876,254.222 L287.660,254.222 C288.537,254.222 289.253,254.935 289.253,255.812 L289.253,271.205 C289.253,272.082 288.537,272.796 287.660,272.796 L207.876,272.796 C206.998,272.796 206.283,272.082 206.283,271.205 L206.283,255.812 C206.283,254.935 206.998,254.222 207.876,254.222 ZM209.468,269.615 L286.067,269.615 L286.067,257.402 L209.468,257.402 L209.468,269.615 ZM207.876,297.686 L287.660,297.686 C288.537,297.686 289.253,298.399 289.253,299.275 L289.253,314.669 C289.253,315.546 288.537,316.259 287.660,316.259 L207.876,316.259 C206.998,316.259 206.283,315.546 206.283,314.669 L206.283,299.275 C206.283,298.399 206.998,297.686 207.876,297.686 ZM209.468,313.079 L286.067,313.079 L286.067,300.866 L209.468,300.866 L209.468,313.079 ZM207.876,340.241 L287.660,340.241 C288.537,340.241 289.253,340.955 289.253,341.832 L289.253,357.225 C289.253,358.101 288.537,358.816 287.660,358.816 L207.876,358.816 C206.998,358.816 206.283,358.101 206.283,357.225 L206.283,341.832 C206.283,340.955 206.998,340.241 207.876,340.241 ZM209.468,355.635 L286.067,355.635 L286.067,343.422 L209.468,343.422 L209.468,355.635 ZM207.876,381.898 L287.660,381.898 C288.537,381.898 289.253,382.611 289.253,383.488 L289.253,398.881 C289.253,399.758 288.537,400.472 287.660,400.472 L207.876,400.472 C206.998,400.472 206.283,399.758 206.283,398.881 L206.283,383.488 C206.283,382.611 206.998,381.898 207.876,381.898 ZM209.468,397.291 L286.067,397.291 L286.067,385.079 L209.468,385.079 L209.468,397.291 ZM302.941,203.969 L308.379,203.969 C309.257,203.969 309.972,204.683 309.972,205.560 L309.972,236.346 C309.972,237.222 309.257,237.936 308.379,237.936 L302.941,237.936 C302.063,237.936 301.348,237.222 301.348,236.346 L301.348,205.560 C301.348,204.683 302.063,203.969 302.941,203.969 ZM304.533,234.756 L306.786,234.756 L306.786,207.150 L304.533,207.150 L304.533,234.756 ZM303.275,245.392 L308.720,245.392 C309.598,245.392 310.313,246.106 310.313,246.983 L310.313,277.769 C310.313,278.646 309.598,279.360 308.720,279.360 L303.275,279.360 C302.397,279.360 301.682,278.646 301.682,277.769 L301.682,246.983 C301.682,246.106 302.397,245.392 303.275,245.392 ZM304.868,276.178 L307.128,276.178 L307.128,248.573 L304.868,248.573 L304.868,276.178 ZM303.275,288.856 L308.720,288.856 C309.598,288.856 310.313,289.570 310.313,290.447 L310.313,321.233 C310.313,322.110 309.598,322.823 308.720,322.823 L303.275,322.823 C302.397,322.823 301.682,322.110 301.682,321.233 L301.682,290.447 C301.682,289.570 302.397,288.856 303.275,288.856 ZM304.868,319.642 L307.128,319.642 L307.128,292.037 L304.868,292.037 L304.868,319.642 ZM303.275,332.320 L308.720,332.320 C309.598,332.320 310.313,333.034 310.313,333.910 L310.313,364.696 C310.313,365.574 309.598,366.287 308.720,366.287 L303.275,366.287 C302.397,366.287 301.682,365.574 301.682,364.696 L301.682,333.910 C301.682,333.034 302.397,332.320 303.275,332.320 ZM304.868,363.106 L307.128,363.106 L307.128,335.501 L304.868,335.501 L304.868,363.106 ZM303.275,375.783 L308.720,375.783 C309.598,375.783 310.313,376.498 310.313,377.374 L310.313,408.160 C310.313,409.037 309.598,409.751 308.720,409.751 L303.275,409.751 C302.397,409.751 301.682,409.037 301.682,408.160 L301.682,377.374 C301.682,376.498 302.397,375.783 303.275,375.783 ZM304.868,406.570 L307.128,406.570 L307.128,378.964 L304.868,378.964 L304.868,406.570 ZM313.669,203.969 L319.115,203.969 C319.993,203.969 320.708,204.683 320.708,205.560 L320.708,236.346 C320.708,237.222 319.993,237.936 319.115,237.936 L313.669,237.936 C312.791,237.936 312.077,237.222 312.077,236.346 L312.077,205.560 C312.077,204.683 312.791,203.969 313.669,203.969 ZM315.262,234.756 L317.523,234.756 L317.523,207.150 L315.262,207.150 L315.262,234.756 ZM314.011,245.392 L319.449,245.392 C320.327,245.392 321.042,246.106 321.042,246.983 L321.042,277.769 C321.042,278.646 320.327,279.360 319.449,279.360 L314.011,279.360 C313.133,279.360 312.419,278.646 312.419,277.769 L312.419,246.983 C312.419,246.106 313.133,245.392 314.011,245.392 ZM315.604,276.178 L317.857,276.178 L317.857,248.573 L315.604,248.573 L315.604,276.178 ZM314.011,288.856 L319.449,288.856 C320.327,288.856 321.042,289.570 321.042,290.447 L321.042,321.233 C321.042,322.110 320.327,322.823 319.449,322.823 L314.011,322.823 C313.133,322.823 312.419,322.110 312.419,321.233 L312.419,290.447 C312.419,289.570 313.133,288.856 314.011,288.856 ZM315.604,319.642 L317.857,319.642 L317.857,292.037 L315.604,292.037 L315.604,319.642 ZM314.011,332.320 L319.449,332.320 C320.327,332.320 321.042,333.034 321.042,333.910 L321.042,364.696 C321.042,365.574 320.327,366.287 319.449,366.287 L314.011,366.287 C313.133,366.287 312.419,365.574 312.419,364.696 L312.419,333.910 C312.419,333.034 313.133,332.320 314.011,332.320 ZM315.604,363.106 L317.857,363.106 L317.857,335.501 L315.604,335.501 L315.604,363.106 ZM314.011,375.783 L319.449,375.783 C320.327,375.783 321.042,376.498 321.042,377.374 L321.042,408.160 C321.042,409.037 320.327,409.751 319.449,409.751 L314.011,409.751 C313.133,409.751 312.419,409.037 312.419,408.160 L312.419,377.374 C312.419,376.498 313.133,375.783 314.011,375.783 ZM315.604,406.570 L317.857,406.570 L317.857,378.964 L315.604,378.964 L315.604,406.570 ZM324.063,203.969 L329.509,203.969 C330.388,203.969 331.102,204.683 331.102,205.560 L331.102,236.346 C331.102,237.222 330.388,237.936 329.509,237.936 L324.063,237.936 C323.186,237.936 322.471,237.222 322.471,236.346 L322.471,205.560 C322.471,204.683 323.186,203.969 324.063,203.969 ZM325.656,234.756 L327.917,234.756 L327.917,207.150 L325.656,207.150 L325.656,234.756 ZM324.405,245.392 L329.844,245.392 C330.722,245.392 331.436,246.106 331.436,246.983 L331.436,277.769 C331.436,278.646 330.722,279.360 329.844,279.360 L324.405,279.360 C323.528,279.360 322.813,278.646 322.813,277.769 L322.813,246.983 C322.813,246.106 323.528,245.392 324.405,245.392 ZM325.998,276.178 L328.251,276.178 L328.251,248.573 L325.998,248.573 L325.998,276.178 ZM324.405,288.856 L329.844,288.856 C330.722,288.856 331.436,289.570 331.436,290.447 L331.436,321.233 C331.436,322.110 330.722,322.823 329.844,322.823 L324.405,322.823 C323.528,322.823 322.813,322.110 322.813,321.233 L322.813,290.447 C322.813,289.570 323.528,288.856 324.405,288.856 ZM325.998,319.642 L328.251,319.642 L328.251,292.037 L325.998,292.037 L325.998,319.642 ZM324.405,332.320 L329.844,332.320 C330.722,332.320 331.436,333.034 331.436,333.910 L331.436,364.696 C331.436,365.574 330.722,366.287 329.844,366.287 L324.405,366.287 C323.528,366.287 322.813,365.574 322.813,364.696 L322.813,333.910 C322.813,333.034 323.528,332.320 324.405,332.320 ZM325.998,363.106 L328.251,363.106 L328.251,335.501 L325.998,335.501 L325.998,363.106 ZM324.405,375.783 L329.844,375.783 C330.722,375.783 331.436,376.498 331.436,377.374 L331.436,408.160 C331.436,409.037 330.722,409.751 329.844,409.751 L324.405,409.751 C323.528,409.751 322.813,409.037 322.813,408.160 L322.813,377.374 C322.813,376.498 323.528,375.783 324.405,375.783 ZM325.998,406.570 L328.251,406.570 L328.251,378.964 L325.998,378.964 L325.998,406.570 ZM329.844,197.871 L324.405,197.871 C323.528,197.871 322.813,197.157 322.813,196.280 L322.813,165.494 C322.813,164.617 323.528,163.904 324.405,163.904 L329.844,163.904 C330.722,163.904 331.436,164.617 331.436,165.494 L331.436,196.280 C331.436,197.157 330.722,197.871 329.844,197.871 ZM328.251,167.085 L325.998,167.085 L325.998,194.690 L328.251,194.690 L328.251,167.085 ZM329.844,154.407 L324.405,154.407 C323.528,154.407 322.813,153.693 322.813,152.817 L322.813,122.030 C322.813,121.153 323.528,120.440 324.405,120.440 L329.844,120.440 C330.722,120.440 331.436,121.153 331.436,122.030 L331.436,152.817 C331.436,153.693 330.722,154.407 329.844,154.407 ZM328.251,123.621 L325.998,123.621 L325.998,151.226 L328.251,151.226 L328.251,123.621 ZM319.286,197.871 L313.840,197.871 C312.962,197.871 312.248,197.157 312.248,196.280 L312.248,165.494 C312.248,164.617 312.962,163.904 313.840,163.904 L319.286,163.904 C320.164,163.904 320.878,164.617 320.878,165.494 L320.878,196.280 C320.878,197.157 320.164,197.871 319.286,197.871 ZM317.694,167.085 L315.433,167.085 L315.433,194.690 L317.694,194.690 L317.694,167.085 ZM319.286,154.407 L313.840,154.407 C312.962,154.407 312.248,153.693 312.248,152.817 L312.248,122.030 C312.248,121.153 312.962,120.440 313.840,120.440 L319.286,120.440 C320.164,120.440 320.878,121.153 320.878,122.030 L320.878,152.817 C320.878,153.693 320.164,154.407 319.286,154.407 ZM317.694,123.621 L315.433,123.621 L315.433,151.226 L317.694,151.226 L317.694,123.621 ZM308.720,197.871 L303.275,197.871 C302.397,197.871 301.682,197.157 301.682,196.280 L301.682,165.494 C301.682,164.617 302.397,163.904 303.275,163.904 L308.720,163.904 C309.598,163.904 310.313,164.617 310.313,165.494 L310.313,196.280 C310.313,197.157 309.598,197.871 308.720,197.871 ZM307.128,167.085 L304.868,167.085 L304.868,194.690 L307.128,194.690 L307.128,167.085 ZM308.720,154.407 L303.275,154.407 C302.397,154.407 301.682,153.693 301.682,152.817 L301.682,122.030 C301.682,121.153 302.397,120.440 303.275,120.440 L308.720,120.440 C309.598,120.440 310.313,121.153 310.313,122.030 L310.313,152.817 C310.313,153.693 309.598,154.407 308.720,154.407 ZM307.128,123.621 L304.868,123.621 L304.868,151.226 L307.128,151.226 L307.128,123.621 ZM194.956,197.871 L189.518,197.871 C188.640,197.871 187.926,197.157 187.926,196.280 L187.926,165.494 C187.926,164.617 188.640,163.904 189.518,163.904 L194.956,163.904 C195.834,163.904 196.549,164.617 196.549,165.494 L196.549,196.280 C196.549,197.157 195.834,197.871 194.956,197.871 ZM193.363,167.085 L191.110,167.085 L191.110,194.690 L193.363,194.690 L193.363,167.085 ZM194.956,154.407 L189.518,154.407 C188.640,154.407 187.926,153.693 187.926,152.817 L187.926,122.030 C187.926,121.153 188.640,120.440 189.518,120.440 L194.956,120.440 C195.834,120.440 196.549,121.153 196.549,122.030 L196.549,152.817 C196.549,153.693 195.834,154.407 194.956,154.407 ZM193.363,123.621 L191.110,123.621 L191.110,151.226 L193.363,151.226 L193.363,123.621 ZM184.390,197.871 L178.953,197.871 C178.075,197.871 177.360,197.157 177.360,196.280 L177.360,165.494 C177.360,164.617 178.075,163.904 178.953,163.904 L184.390,163.904 C185.269,163.904 185.983,164.617 185.983,165.494 L185.983,196.280 C185.983,197.157 185.269,197.871 184.390,197.871 ZM182.798,167.085 L180.545,167.085 L180.545,194.690 L182.798,194.690 L182.798,167.085 ZM184.390,154.407 L178.953,154.407 C178.075,154.407 177.360,153.693 177.360,152.817 L177.360,122.030 C177.360,121.153 178.075,120.440 178.953,120.440 L184.390,120.440 C185.269,120.440 185.983,121.153 185.983,122.030 L185.983,152.817 C185.983,153.693 185.269,154.407 184.390,154.407 ZM182.798,123.621 L180.545,123.621 L180.545,151.226 L182.798,151.226 L182.798,123.621 ZM173.826,197.871 L168.387,197.871 C167.509,197.871 166.794,197.157 166.794,196.280 L166.794,165.494 C166.794,164.617 167.509,163.904 168.387,163.904 L173.826,163.904 C174.703,163.904 175.418,164.617 175.418,165.494 L175.418,196.280 C175.418,197.157 174.703,197.871 173.826,197.871 ZM172.233,167.085 L169.980,167.085 L169.980,194.690 L172.233,194.690 L172.233,167.085 ZM173.826,154.407 L168.387,154.407 C167.509,154.407 166.794,153.693 166.794,152.817 L166.794,122.030 C166.794,121.153 167.509,120.440 168.387,120.440 L173.826,120.440 C174.703,120.440 175.418,121.153 175.418,122.030 L175.418,152.817 C175.418,153.693 174.703,154.407 173.826,154.407 ZM172.233,123.621 L169.980,123.621 L169.980,151.226 L172.233,151.226 L172.233,123.621 ZM332.539,434.423 L325.742,434.423 C324.864,434.423 324.149,433.709 324.149,432.833 L324.149,428.084 C324.149,427.208 324.864,426.494 325.742,426.494 L332.539,426.494 C333.417,426.494 334.132,427.208 334.132,428.084 L334.132,432.833 C334.132,433.709 333.417,434.423 332.539,434.423 ZM330.947,429.675 L327.334,429.675 L327.334,431.242 L330.947,431.242 L330.947,429.675 ZM316.217,434.423 L309.419,434.423 C308.542,434.423 307.827,433.709 307.827,432.833 L307.827,428.084 C307.827,427.208 308.542,426.494 309.419,426.494 L316.217,426.494 C317.096,426.494 317.810,427.208 317.810,428.084 L317.810,432.833 C317.810,433.709 317.096,434.423 316.217,434.423 ZM314.624,429.675 L311.012,429.675 L311.012,431.242 L314.624,431.242 L314.624,429.675 ZM299.903,434.423 L293.098,434.423 C292.220,434.423 291.505,433.709 291.505,432.833 L291.505,428.084 C291.505,427.208 292.220,426.494 293.098,426.494 L299.903,426.494 C300.781,426.494 301.496,427.208 301.496,428.084 L301.496,432.833 C301.496,433.709 300.781,434.423 299.903,434.423 ZM298.310,429.675 L294.691,429.675 L294.691,431.242 L298.310,431.242 L298.310,429.675 Z" class="cls-1"/>
</svg>
